<svg width="30" height="30" viewBox="0 0 30 30" fill="none" xmlns="http://www.w3.org/2000/svg">
<rect width="30" height="30" fill="#7FC9FF"/>
<path d="M6.328 21V9.8H11.416C12.632 9.8 13.704 10.0347 14.632 10.504C15.56 10.9627 16.2853 11.608 16.808 12.44C17.3307 13.272 17.592 14.2587 17.592 15.4C17.592 16.5307 17.3307 17.5173 16.808 18.36C16.2853 19.192 15.56 19.8427 14.632 20.312C13.704 20.7707 12.632 21 11.416 21H6.328ZM8.92 18.872H11.288C12.0347 18.872 12.68 18.7333 13.224 18.456C13.7787 18.168 14.2053 17.7627 14.504 17.24C14.8133 16.7173 14.968 16.104 14.968 15.4C14.968 14.6853 14.8133 14.072 14.504 13.56C14.2053 13.0373 13.7787 12.6373 13.224 12.36C12.68 12.072 12.0347 11.928 11.288 11.928H8.92V18.872ZM19.6748 21V12.2C19.6748 11.2293 19.9628 10.456 20.5388 9.88C21.1148 9.29333 21.9361 9 23.0028 9C23.3654 9 23.7121 9.03733 24.0428 9.112C24.3841 9.18667 24.6721 9.304 24.9068 9.464L24.2508 11.272C24.1121 11.176 23.9574 11.1013 23.7868 11.048C23.6161 10.9947 23.4348 10.968 23.2428 10.968C22.8801 10.968 22.5974 11.0747 22.3948 11.288C22.2028 11.4907 22.1068 11.8 22.1068 12.216V13.016L22.1708 14.088V21H19.6748ZM18.3468 14.504V12.584H24.3148V14.504H18.3468Z" fill="#323030"/>
</svg>
