<svg width="30" height="30" viewBox="0 0 30 30" fill="none" xmlns="http://www.w3.org/2000/svg">
<rect width="30" height="30" fill="#497A3E"/>
<path d="M8.688 21L3.856 9.8H6.656L10.88 19.72H9.232L13.52 9.8H16.096L11.248 21H8.688ZM21.759 12.264C22.4417 12.264 23.0497 12.4027 23.583 12.68C24.127 12.9467 24.5537 13.3627 24.863 13.928C25.1723 14.4827 25.327 15.1973 25.327 16.072V21H22.831V16.456C22.831 15.7627 22.6763 15.2507 22.367 14.92C22.0683 14.5893 21.6417 14.424 21.087 14.424C20.6923 14.424 20.335 14.5093 20.015 14.68C19.7057 14.84 19.4603 15.0907 19.279 15.432C19.1083 15.7733 19.023 16.2107 19.023 16.744V21H16.527V12.392H18.911V14.776L18.463 14.056C18.7723 13.48 19.215 13.0373 19.791 12.728C20.367 12.4187 21.023 12.264 21.759 12.264Z" fill="#323030"/>
</svg>
