<svg width="30" height="30" viewBox="0 0 30 30" fill="none" xmlns="http://www.w3.org/2000/svg">
<rect width="30" height="30" fill="#77C966"/>
<path d="M8.688 21L3.856 9.8H6.656L10.88 19.72H9.232L13.52 9.8H16.096L11.248 21H8.688ZM20.2625 24.232C19.4518 24.232 18.6678 24.1307 17.9105 23.928C17.1638 23.736 16.5398 23.4427 16.0385 23.048L17.0305 21.256C17.3932 21.5547 17.8518 21.7893 18.4065 21.96C18.9718 22.1413 19.5265 22.232 20.0705 22.232C20.9558 22.232 21.5958 22.0347 21.9905 21.64C22.3958 21.2453 22.5985 20.6587 22.5985 19.88V18.584L22.7585 16.424L22.7265 14.248V12.392H25.0945V19.56C25.0945 21.16 24.6785 22.3387 23.8465 23.096C23.0145 23.8533 21.8198 24.232 20.2625 24.232ZM19.8785 20.584C19.0785 20.584 18.3532 20.4133 17.7025 20.072C17.0625 19.72 16.5452 19.2347 16.1505 18.616C15.7665 17.9867 15.5745 17.256 15.5745 16.424C15.5745 15.5813 15.7665 14.8507 16.1505 14.232C16.5452 13.6027 17.0625 13.1173 17.7025 12.776C18.3532 12.4347 19.0785 12.264 19.8785 12.264C20.6038 12.264 21.2438 12.4133 21.7985 12.712C22.3532 13 22.7852 13.4533 23.0945 14.072C23.4038 14.68 23.5585 15.464 23.5585 16.424C23.5585 17.3733 23.4038 18.1573 23.0945 18.776C22.7852 19.384 22.3532 19.8373 21.7985 20.136C21.2438 20.4347 20.6038 20.584 19.8785 20.584ZM20.3745 18.536C20.8118 18.536 21.2012 18.4507 21.5425 18.28C21.8838 18.0987 22.1505 17.848 22.3425 17.528C22.5345 17.208 22.6305 16.84 22.6305 16.424C22.6305 15.9973 22.5345 15.6293 22.3425 15.32C22.1505 15 21.8838 14.7547 21.5425 14.584C21.2012 14.4027 20.8118 14.312 20.3745 14.312C19.9372 14.312 19.5478 14.4027 19.2065 14.584C18.8652 14.7547 18.5932 15 18.3905 15.32C18.1985 15.6293 18.1025 15.9973 18.1025 16.424C18.1025 16.84 18.1985 17.208 18.3905 17.528C18.5932 17.848 18.8652 18.0987 19.2065 18.28C19.5478 18.4507 19.9372 18.536 20.3745 18.536Z" fill="#323030"/>
</svg>
