<svg width="30" height="30" viewBox="0 0 30 30" fill="none" xmlns="http://www.w3.org/2000/svg">
<rect width="30" height="30" fill="#DDDDB1"/>
<path d="M12.736 21.192C11.8507 21.192 11.0347 21.0533 10.288 20.776C9.552 20.488 8.90667 20.0827 8.352 19.56C7.808 19.0373 7.38133 18.424 7.072 17.72C6.77333 17.016 6.624 16.2427 6.624 15.4C6.624 14.5573 6.77333 13.784 7.072 13.08C7.38133 12.376 7.81333 11.7627 8.368 11.24C8.92267 10.7173 9.57333 10.3173 10.32 10.04C11.0667 9.752 11.888 9.608 12.784 9.608C13.776 9.608 14.6667 9.77333 15.456 10.104C16.256 10.4347 16.928 10.9147 17.472 11.544L15.808 13.08C15.4027 12.6533 14.96 12.3387 14.48 12.136C14 11.9227 13.4773 11.816 12.912 11.816C12.368 11.816 11.872 11.9013 11.424 12.072C10.976 12.2427 10.5867 12.488 10.256 12.808C9.936 13.128 9.68533 13.5067 9.504 13.944C9.33333 14.3813 9.248 14.8667 9.248 15.4C9.248 15.9227 9.33333 16.4027 9.504 16.84C9.68533 17.2773 9.936 17.6613 10.256 17.992C10.5867 18.312 10.9707 18.5573 11.408 18.728C11.856 18.8987 12.3467 18.984 12.88 18.984C13.392 18.984 13.888 18.904 14.368 18.744C14.8587 18.5733 15.3333 18.2907 15.792 17.896L17.264 19.768C16.656 20.2267 15.9467 20.5787 15.136 20.824C14.336 21.0693 13.536 21.192 12.736 21.192ZM14.896 19.432V15.224H17.264V19.768L14.896 19.432ZM19.7998 21V12.2C19.7998 11.2293 20.0878 10.456 20.6638 9.88C21.2398 9.29333 22.0611 9 23.1278 9C23.4904 9 23.8371 9.03733 24.1678 9.112C24.5091 9.18667 24.7971 9.304 25.0318 9.464L24.3758 11.272C24.2371 11.176 24.0824 11.1013 23.9118 11.048C23.7411 10.9947 23.5598 10.968 23.3678 10.968C23.0051 10.968 22.7224 11.0747 22.5198 11.288C22.3278 11.4907 22.2318 11.8 22.2318 12.216V13.016L22.2958 14.088V21H19.7998ZM18.4718 14.504V12.584H24.4398V14.504H18.4718Z" fill="#323030"/>
</svg>
