<svg width="30" height="30" viewBox="0 0 30 30" fill="none" xmlns="http://www.w3.org/2000/svg">
<circle cx="15" cy="15" r="15" fill="#FFFCF5"/>
<path d="M15.9695 4.96877H13.9695V16.1007L21.1953 19.535L22.0539 17.7286L15.9695 14.8368V4.96877Z" fill="#323030"/>
<path d="M15 0C6.71575 0 0 6.71575 0 15C0 23.2843 6.71575 30 15 30C23.2843 30 30 23.2843 30 15C30 6.71575 23.2843 0 15 0ZM15 28C7.82031 28 2 22.1797 2 15C2 7.82031 7.82031 2 15 2C22.1797 2 28 7.82031 28 15C28 22.1797 22.1797 28 15 28Z" fill="#FFFCF5"/>
</svg>
